<?xml version="1.0" encoding="utf-8"?>
<!-- Generator: Adobe Illustrator 19.2.1, SVG Export Plug-In . SVG Version: 6.00 Build 0)  -->
<svg version="1.1" id="layer" xmlns="http://www.w3.org/2000/svg" xmlns:xlink="http://www.w3.org/1999/xlink" x="0px" y="0px"
	 viewBox="0 0 652 652" style="enable-background:new 0 0 652 652;" xml:space="preserve">
<style type="text/css">
	.st0{fill:#E2231A;}
	.st1{fill:none;stroke:#000000;stroke-width:1.2605;}
</style>
<rect x="21.2" y="206.4" class="st0" width="599.2" height="99.9"/>
<rect x="21.2" y="206.4" class="st1" width="599.2" height="99.9"/>
<g>
	<path d="M42.8,436.7H22v-33.5h25c0,0,2.5,12.9,10.2,12.9c7.8,0,12-3.5,11.3-9.5c-0.7-6-12.5-9.3-22.4-13.7
		c-9.9-4.4-25.7-10.9-25.7-30.3c0-19.4,12.1-33.4,33.4-33.4c13.8,0,17.5,6.3,17.5,6.3v-3.9h22.2v33.5H69.9c0,0-2.5-12.9-12.3-12.9
		c-9.9,0-10.2,10.2-7.6,12.9c2.6,2.7,8.5,5.3,14.6,6.9s31.9,9.2,31.9,33.7c0,24.5-22.6,34.2-34.4,34.2c-11.8,0-19.4-5.6-19.4-5.6
		V436.7z"/>
	<path d="M154.1,329.1c-30.6,0-55.5,24.8-55.5,55.5c0,30.6,24.8,55.5,55.5,55.5c30.7,0,55.5-24.8,55.5-55.5
		C209.6,354,184.8,329.1,154.1,329.1 M154.1,411.5c-14.9,0-26.9-12-26.9-26.9s12.1-26.9,26.9-26.9c14.9,0,26.9,12.1,26.9,26.9
		S169,411.5,154.1,411.5"/>
	<path d="M257,439.8c25.1,0,41.4-21.8,41.4-37v-49.1h8.7v-22.3H262v22.3h8.5v43.9c0,9.4-6.6,14.5-13.4,14.5
		c-6.8,0-13.4-5.1-13.4-14.5v-43.9h8.5v-22.3H207v22.3h8.7v49.1C215.7,418,231.9,439.8,257,439.8"/>
	<path d="M372.9,331.3h-58.5v22.3h9.9v60.6h-9.9v24h58c18.8,0,47.9-14.1,47.9-53.8C420.3,344.7,391.6,331.3,372.9,331.3 M372.4,413
		h-19v-56.4h19c7.5,0,21.1,10.6,21.1,27.8C393.5,401.5,382.5,413,372.4,413"/>
	<path d="M520.2,414.5l-34.8-83.2h-44.2v24h9l-25,59.2h-8v23.7h50.5v-23.7h-10.1l2.4-4.5h26.1l2.5,4.5h-8v23.7h48.9v-23.7H520.2z
		 M464.3,387.7l7.5-20l7.8,20H464.3z"/>
	<polygon points="535.3,414.5 535.3,438.2 619.7,438.2 619.7,397.5 591.5,397.5 591.5,411.4 574.6,411.4 574.6,353.6 584.2,353.6 
		584.2,331.3 535.1,331.3 535.1,353.6 544.9,353.6 544.9,414.5 	"/>
</g>
</svg>
